<svg width="100" height="50" viewBox="0 0 792 387" fill="none" xmlns="http://www.w3.org/2000/svg">
<path d="M33.833 221.613C33.833 248.219 25.3747 257.296 0 257.296V306.752C7.8431 307.848 14.1483 308.161 20.9149 308.161C66.5895 308.161 93.6559 286.094 93.6559 228.969V73.5587H33.833V221.613ZM132.718 307.378H190.541V127.553H132.718V307.378ZM322.951 127.553V307.378H380.775V127.553H322.951Z" fill="#353C42"/>
<path fill-rule="evenodd" clip-rule="evenodd" d="M351.867 40.2212C370.014 40.2212 384.623 55.0892 384.623 73.5569C384.623 92.0246 370.014 106.893 351.867 106.893C333.72 106.893 319.11 92.0246 319.11 73.5569C319.11 55.2457 333.72 40.2212 351.867 40.2212Z" fill="#F45F4D"/>
<path fill-rule="evenodd" clip-rule="evenodd" d="M161.63 40.2212C179.777 40.2212 194.387 55.0892 194.387 73.5569C194.387 92.0246 179.777 106.893 161.63 106.893C143.484 106.893 128.874 92.0246 128.874 73.5569C128.874 55.2457 143.484 40.2212 161.63 40.2212Z" fill="#FFA010"/>
<ellipse cx="603" cy="195" rx="189" ry="187" fill="white"/>
<path d="M214.072 384.535C267.282 377.961 287.12 344.469 287.12 291.883V80.6005H229.912V295.326C229.912 325.689 221.454 331.949 204.845 340.244L214.072 384.535ZM258.67 64.6369C277.586 64.6369 292.195 51.8034 292.195 32.5532C292.195 13.1465 277.739 0 258.67 0C239.754 0 225.452 13.1465 225.452 32.5532C225.606 51.8034 239.754 64.6369 258.67 64.6369Z" fill="#72B747"/>
<path fill-rule="evenodd" clip-rule="evenodd" d="M602.996 1.41031C707.417 1.41031 792 87.645 792 193.756C792 299.867 707.417 386.102 602.996 386.102C498.576 386.102 413.993 300.023 413.993 193.756C413.993 87.4885 498.576 1.41031 602.996 1.41031ZM737.559 155.256V127.398C722.18 126.459 714.03 131.154 705.725 137.884C697.421 132.406 685.887 129.276 671.585 129.276C646.056 129.276 627.602 138.667 621.143 155.882C620.681 153.535 620.22 151.187 619.451 149.153C615.453 136.945 606.533 129.589 588.848 129.589C575.007 129.589 562.858 134.128 554.4 149.153V130.685H514.569V254.794H554.4V185.305C554.4 166.838 561.166 161.204 571.316 161.204C578.852 161.204 582.389 164.49 582.389 179.828V254.794H622.219V188.436C625.295 194.852 630.37 200.017 637.136 203.93C627.909 209.72 622.681 218.015 622.681 227.562C622.681 237.891 628.371 244.778 635.599 248.534C626.833 253.073 616.529 259.489 616.529 275.766C616.529 295.642 632.523 308.163 670.969 308.163C714.337 308.163 733.253 292.356 733.253 263.715C733.253 240.552 720.796 226.623 691.731 225.527L664.664 224.275C656.36 224.119 654.361 222.397 654.361 217.859C654.361 215.198 655.745 212.537 658.359 210.503C662.204 210.972 666.202 211.285 670.662 211.285C704.341 211.285 723.257 195.322 723.257 170.437C723.257 164.647 722.027 159.169 720.181 154.474C725.976 153.755 731.641 154.49 736.34 155.099L737.559 155.256ZM682.965 260.428C693.115 261.367 695.729 265.28 695.729 270.288C695.729 279.052 687.425 282.496 674.045 282.496C657.744 282.496 650.516 277.644 650.516 267.471C650.516 263.402 651.746 260.272 653.284 257.455L682.965 260.428ZM671.123 188.279C661.896 188.279 658.205 180.923 658.205 170.124C658.205 158.699 662.511 152.283 670.969 152.283C680.35 152.283 684.195 160.421 684.195 170.907C684.041 182.958 678.966 188.279 671.123 188.279ZM503.804 234.604C503.804 223.179 494.731 214.102 483.658 214.102C472.586 214.102 463.512 223.179 463.512 234.604C463.512 246.029 472.586 255.106 483.658 255.106C494.885 255.106 503.804 245.873 503.804 234.604Z" fill="#72B747"/>
</svg>
